<svg id="visual" viewBox="0 0 900 900" width="900" height="900" xmlns="http://www.w3.org/2000/svg" xmlns:xlink="http://www.w3.org/1999/xlink" version="1.1"><g stroke-width="1" stroke-linejoin="bevel"><path d="M457 455L557.5 359.5L422 363.5Z" fill="#00152d" stroke="#00152d"></path><path d="M457 455L588.5 445L557.5 359.5Z" fill="#1a1349" stroke="#1a1349"></path><path d="M457 455L543.5 534.5L588.5 445Z" fill="#23114c" stroke="#23114c"></path><path d="M439 216L326.5 314.5L422 363.5Z" fill="#00152d" stroke="#00152d"></path><path d="M422 363.5L313.5 443L457 455Z" fill="#001327" stroke="#001327"></path><path d="M557.5 359.5L439 216L422 363.5Z" fill="#0a1641" stroke="#0a1641"></path><path d="M457 455L477 572.5L543.5 534.5Z" fill="#00101c" stroke="#00101c"></path><path d="M348.5 589.5L477 572.5L457 455Z" fill="#001222" stroke="#001222"></path><path d="M326.5 314.5L313.5 443L422 363.5Z" fill="#001222" stroke="#001222"></path><path d="M588.5 445L668 331.5L557.5 359.5Z" fill="#121546" stroke="#121546"></path><path d="M557.5 359.5L569.5 220L439 216Z" fill="#001533" stroke="#001533"></path><path d="M695 464L668 331.5L588.5 445Z" fill="#03163d" stroke="#03163d"></path><path d="M668 331.5L569.5 220L557.5 359.5Z" fill="#1a1349" stroke="#1a1349"></path><path d="M692 581.5L588.5 445L543.5 534.5Z" fill="#001533" stroke="#001533"></path><path d="M692 581.5L695 464L588.5 445Z" fill="#0a1641" stroke="#0a1641"></path><path d="M439 216L320.5 239L326.5 314.5Z" fill="#1a1349" stroke="#1a1349"></path><path d="M326.5 314.5L251 314.5L313.5 443Z" fill="#001222" stroke="#001222"></path><path d="M791.5 228L664 227L668 331.5Z" fill="#00152d" stroke="#00152d"></path><path d="M668 331.5L664 227L569.5 220Z" fill="#001222" stroke="#001222"></path><path d="M313.5 443L348.5 589.5L457 455Z" fill="#00101c" stroke="#00101c"></path><path d="M320.5 239L251 314.5L326.5 314.5Z" fill="#001327" stroke="#001327"></path><path d="M313.5 443L198 569.5L348.5 589.5Z" fill="#001222" stroke="#001222"></path><path d="M251 314.5L234 448L313.5 443Z" fill="#001638" stroke="#001638"></path><path d="M686 136.5L552.5 128.5L569.5 220Z" fill="#001533" stroke="#001533"></path><path d="M569.5 220L552.5 128.5L439 216Z" fill="#03163d" stroke="#03163d"></path><path d="M439 216L337.5 116.5L320.5 239Z" fill="#0a1641" stroke="#0a1641"></path><path d="M552.5 128.5L432 124.5L439 216Z" fill="#001222" stroke="#001222"></path><path d="M564.5 680L692 581.5L543.5 534.5Z" fill="#001533" stroke="#001533"></path><path d="M564.5 680L543.5 534.5L477 572.5Z" fill="#00152d" stroke="#00152d"></path><path d="M348.5 589.5L436 668L477 572.5Z" fill="#23114c" stroke="#23114c"></path><path d="M436 668L564.5 680L477 572.5Z" fill="#121546" stroke="#121546"></path><path d="M348.5 589.5L329.5 649L436 668Z" fill="#00152d" stroke="#00152d"></path><path d="M252 657L329.5 649L348.5 589.5Z" fill="#03163d" stroke="#03163d"></path><path d="M443 0L337.5 116.5L432 124.5Z" fill="#1a1349" stroke="#1a1349"></path><path d="M432 124.5L337.5 116.5L439 216Z" fill="#23114c" stroke="#23114c"></path><path d="M320.5 239L209 218L251 314.5Z" fill="#001222" stroke="#001222"></path><path d="M790.5 562.5L798.5 461L695 464Z" fill="#001533" stroke="#001533"></path><path d="M695 464L810.5 326.5L668 331.5Z" fill="#1a1349" stroke="#1a1349"></path><path d="M791.5 228L686 136.5L664 227Z" fill="#001222" stroke="#001222"></path><path d="M664 227L686 136.5L569.5 220Z" fill="#00101c" stroke="#00101c"></path><path d="M798.5 461L810.5 326.5L695 464Z" fill="#001222" stroke="#001222"></path><path d="M337.5 116.5L209 218L320.5 239Z" fill="#0a1641" stroke="#0a1641"></path><path d="M251 314.5L122.5 349.5L234 448Z" fill="#001222" stroke="#001222"></path><path d="M810.5 326.5L791.5 228L668 331.5Z" fill="#0a1641" stroke="#0a1641"></path><path d="M127.5 545.5L198 569.5L234 448Z" fill="#23114c" stroke="#23114c"></path><path d="M234 448L198 569.5L313.5 443Z" fill="#23114c" stroke="#23114c"></path><path d="M807.5 682L790.5 562.5L692 581.5Z" fill="#03163d" stroke="#03163d"></path><path d="M692 581.5L790.5 562.5L695 464Z" fill="#001638" stroke="#001638"></path><path d="M798.5 461L900 358.5L810.5 326.5Z" fill="#001638" stroke="#001638"></path><path d="M198 569.5L252 657L348.5 589.5Z" fill="#001638" stroke="#001638"></path><path d="M309.5 780.5L440 796.5L436 668Z" fill="#121546" stroke="#121546"></path><path d="M436 668L440 796.5L564.5 680Z" fill="#001327" stroke="#001327"></path><path d="M564.5 680L695 689L692 581.5Z" fill="#03163d" stroke="#03163d"></path><path d="M128.5 247L122.5 349.5L251 314.5Z" fill="#001222" stroke="#001222"></path><path d="M122.5 349.5L113.5 437L234 448Z" fill="#00101c" stroke="#00101c"></path><path d="M198 569.5L102.5 652L252 657Z" fill="#1a1349" stroke="#1a1349"></path><path d="M337.5 116.5L201 132.5L209 218Z" fill="#001638" stroke="#001638"></path><path d="M209 218L128.5 247L251 314.5Z" fill="#1a1349" stroke="#1a1349"></path><path d="M125.5 134.5L128.5 247L209 218Z" fill="#001638" stroke="#001638"></path><path d="M122.5 349.5L0 336.5L113.5 437Z" fill="#1a1349" stroke="#1a1349"></path><path d="M693 0L536.5 0L552.5 128.5Z" fill="#00152d" stroke="#00152d"></path><path d="M552.5 128.5L536.5 0L432 124.5Z" fill="#001222" stroke="#001222"></path><path d="M337.5 116.5L310.5 0L201 132.5Z" fill="#00101c" stroke="#00101c"></path><path d="M693 0L552.5 128.5L686 136.5Z" fill="#001638" stroke="#001638"></path><path d="M536.5 0L443 0L432 124.5Z" fill="#001638" stroke="#001638"></path><path d="M113.5 437L127.5 545.5L234 448Z" fill="#121546" stroke="#121546"></path><path d="M309.5 780.5L436 668L329.5 649Z" fill="#001533" stroke="#001533"></path><path d="M564.5 680L647 787.5L695 689Z" fill="#00101c" stroke="#00101c"></path><path d="M900 468L900 358.5L798.5 461Z" fill="#0a1641" stroke="#0a1641"></path><path d="M810.5 326.5L900 242L791.5 228Z" fill="#001327" stroke="#001327"></path><path d="M790.5 562.5L900 468L798.5 461Z" fill="#001222" stroke="#001222"></path><path d="M900 578.5L900 468L790.5 562.5Z" fill="#001327" stroke="#001327"></path><path d="M900 95.5L788.5 88.5L791.5 228Z" fill="#001638" stroke="#001638"></path><path d="M791.5 228L788.5 88.5L686 136.5Z" fill="#121546" stroke="#121546"></path><path d="M440 796.5L551.5 811.5L564.5 680Z" fill="#121546" stroke="#121546"></path><path d="M551.5 811.5L647 787.5L564.5 680Z" fill="#00152d" stroke="#00152d"></path><path d="M695 689L807.5 682L692 581.5Z" fill="#001638" stroke="#001638"></path><path d="M443 0L310.5 0L337.5 116.5Z" fill="#00152d" stroke="#00152d"></path><path d="M213 769.5L309.5 780.5L252 657Z" fill="#001222" stroke="#001222"></path><path d="M252 657L309.5 780.5L329.5 649Z" fill="#121546" stroke="#121546"></path><path d="M440 796.5L438 900L551.5 811.5Z" fill="#0a1641" stroke="#0a1641"></path><path d="M787.5 771.5L807.5 682L695 689Z" fill="#121546" stroke="#121546"></path><path d="M900 358.5L900 242L810.5 326.5Z" fill="#00152d" stroke="#00152d"></path><path d="M788.5 88.5L693 0L686 136.5Z" fill="#00152d" stroke="#00152d"></path><path d="M201 132.5L125.5 134.5L209 218Z" fill="#23114c" stroke="#23114c"></path><path d="M128.5 247L0 336.5L122.5 349.5Z" fill="#23114c" stroke="#23114c"></path><path d="M206 0L125.5 134.5L201 132.5Z" fill="#001638" stroke="#001638"></path><path d="M807.5 682L900 578.5L790.5 562.5Z" fill="#1a1349" stroke="#1a1349"></path><path d="M0 569.5L102.5 652L127.5 545.5Z" fill="#001638" stroke="#001638"></path><path d="M127.5 545.5L102.5 652L198 569.5Z" fill="#00152d" stroke="#00152d"></path><path d="M0 467L127.5 545.5L113.5 437Z" fill="#001222" stroke="#001222"></path><path d="M102.5 652L213 769.5L252 657Z" fill="#03163d" stroke="#03163d"></path><path d="M342.5 900L438 900L440 796.5Z" fill="#001222" stroke="#001222"></path><path d="M310.5 0L206 0L201 132.5Z" fill="#23114c" stroke="#23114c"></path><path d="M647 787.5L787.5 771.5L695 689Z" fill="#121546" stroke="#121546"></path><path d="M807.5 682L900 662L900 578.5Z" fill="#00101c" stroke="#00101c"></path><path d="M683 900L787.5 771.5L647 787.5Z" fill="#23114c" stroke="#23114c"></path><path d="M900 769.5L900 662L807.5 682Z" fill="#001327" stroke="#001327"></path><path d="M900 0L791.5 0L788.5 88.5Z" fill="#23114c" stroke="#23114c"></path><path d="M788.5 88.5L791.5 0L693 0Z" fill="#001638" stroke="#001638"></path><path d="M0 237L128.5 247L125.5 134.5Z" fill="#121546" stroke="#121546"></path><path d="M0 237L0 336.5L128.5 247Z" fill="#23114c" stroke="#23114c"></path><path d="M0 336.5L0 467L113.5 437Z" fill="#001222" stroke="#001222"></path><path d="M900 242L900 95.5L791.5 228Z" fill="#0a1641" stroke="#0a1641"></path><path d="M342.5 900L440 796.5L309.5 780.5Z" fill="#001327" stroke="#001327"></path><path d="M551.5 811.5L567.5 900L647 787.5Z" fill="#001222" stroke="#001222"></path><path d="M0 115.5L0 237L125.5 134.5Z" fill="#001638" stroke="#001638"></path><path d="M438 900L567.5 900L551.5 811.5Z" fill="#00101c" stroke="#00101c"></path><path d="M0 467L0 569.5L127.5 545.5Z" fill="#00101c" stroke="#00101c"></path><path d="M102.5 652L138.5 788.5L213 769.5Z" fill="#0a1641" stroke="#0a1641"></path><path d="M232 900L309.5 780.5L213 769.5Z" fill="#00152d" stroke="#00152d"></path><path d="M232 900L342.5 900L309.5 780.5Z" fill="#001533" stroke="#001533"></path><path d="M0 773.5L138.5 788.5L102.5 652Z" fill="#001638" stroke="#001638"></path><path d="M206 0L109.5 0L125.5 134.5Z" fill="#00152d" stroke="#00152d"></path><path d="M567.5 900L683 900L647 787.5Z" fill="#121546" stroke="#121546"></path><path d="M787.5 771.5L900 769.5L807.5 682Z" fill="#001222" stroke="#001222"></path><path d="M900 900L900 769.5L787.5 771.5Z" fill="#001222" stroke="#001222"></path><path d="M109.5 0L0 115.5L125.5 134.5Z" fill="#00101c" stroke="#00101c"></path><path d="M900 95.5L900 0L788.5 88.5Z" fill="#001327" stroke="#001327"></path><path d="M0 569.5L0 680L102.5 652Z" fill="#00152d" stroke="#00152d"></path><path d="M112.5 900L232 900L138.5 788.5Z" fill="#121546" stroke="#121546"></path><path d="M138.5 788.5L232 900L213 769.5Z" fill="#03163d" stroke="#03163d"></path><path d="M683 900L764.5 900L787.5 771.5Z" fill="#001222" stroke="#001222"></path><path d="M0 680L0 773.5L102.5 652Z" fill="#03163d" stroke="#03163d"></path><path d="M109.5 0L0 0L0 115.5Z" fill="#001222" stroke="#001222"></path><path d="M0 773.5L112.5 900L138.5 788.5Z" fill="#0a1641" stroke="#0a1641"></path><path d="M764.5 900L900 900L787.5 771.5Z" fill="#0a1641" stroke="#0a1641"></path><path d="M0 773.5L0 900L112.5 900Z" fill="#001222" stroke="#001222"></path></g></svg>